<svg xmlns="http://www.w3.org/2000/svg" width="900" height="600" viewBox="0 0 900 600" role="img" aria-label="Beach photo illustration">
  <defs>
    <linearGradient id="gSky" x1="0" x2="0" y1="0" y2="1">
      <stop offset="0" stop-color="#dbeafe"/>
      <stop offset="1" stop-color="#f8fafc"/>
    </linearGradient>
    <linearGradient id="gSea" x1="0" x2="1" y1="0" y2="0">
      <stop offset="0" stop-color="#38bdf8"/>
      <stop offset="1" stop-color="#1d4ed8"/>
    </linearGradient>
    <linearGradient id="gSand" x1="0" x2="0" y1="0" y2="1">
      <stop offset="0" stop-color="#fde68a"/>
      <stop offset="1" stop-color="#f59e0b"/>
    </linearGradient>
  </defs>

  <rect width="900" height="600" fill="url(#gSky)"/>
  <circle cx="720" cy="130" r="62" fill="#fbbf24" opacity="0.95"/>

  <path d="M0 320 C180 280 320 350 480 320 C620 295 760 360 900 325 L900 600 L0 600 Z" fill="url(#gSea)" opacity="0.95"/>
  <path d="M0 420 C220 395 330 450 520 430 C700 410 770 470 900 445 L900 600 L0 600 Z" fill="url(#gSand)"/>

  <!-- palm -->
  <g transform="translate(160,250)">
    <path d="M78 190 C68 140 70 90 94 20" stroke="#14532d" stroke-width="18" stroke-linecap="round"/>
    <path d="M90 20 C60 10 30 16 0 36" stroke="#16a34a" stroke-width="18" stroke-linecap="round"/>
    <path d="M92 22 C120 0 160 -2 196 18" stroke="#16a34a" stroke-width="18" stroke-linecap="round"/>
    <path d="M90 26 C68 0 40 -18 12 -20" stroke="#22c55e" stroke-width="14" stroke-linecap="round" opacity="0.9"/>
    <path d="M96 26 C130 8 168 10 210 32" stroke="#22c55e" stroke-width="14" stroke-linecap="round" opacity="0.9"/>
  </g>
</svg>

